<?xml version="1.0" encoding="UTF-8"?>
<svg version="1.1" xmlns="http://www.w3.org/2000/svg" width="547" height="76">
<path d="M0 0 C6.49342147 2.59736859 8.27936303 7.96102103 11 14 C13.20292566 19.30683935 15.21851476 24.68835444 17.25 30.0625 C18.06003843 32.19702823 18.87156445 34.33095868 19.68621826 36.46372986 C20.41559984 38.37435839 21.14006316 40.28686231 21.86425781 42.19946289 C22.73242603 44.86226938 22.73242603 44.86226938 24 46 C25.21262026 42.65439105 26.390407 39.29749994 27.5625 35.9375 C27.90474609 34.99455078 28.24699219 34.05160156 28.59960938 33.08007812 C31.17845029 25.60404438 31.41326886 20.35040245 27.9375 13.0625 C27.39416016 11.90427734 27.39416016 11.90427734 26.83984375 10.72265625 C26.56269531 10.15417969 26.28554687 9.58570313 26 9 C21.87026372 9.56739868 21.87026372 9.56739868 18 11 C18.26787875 7.07111171 18.52437097 5.45123779 21.4375 2.6875 C26.776628 -0.82851112 31.71694461 -0.55172308 38 0 C44.49342147 2.59736859 46.27936303 7.96102103 49 14 C51.20292566 19.30683935 53.21851476 24.68835444 55.25 30.0625 C56.06003843 32.19702823 56.87156445 34.33095868 57.68621826 36.46372986 C58.41559984 38.37435839 59.14006316 40.28686231 59.86425781 42.19946289 C60.73242603 44.86226938 60.73242603 44.86226938 62 46 C68.93 24.715 68.93 24.715 76 3 C73.69 2.67 71.38 2.34 69 2 C69 1.34 69 0.68 69 0 C75.6 0 82.2 0 89 0 C89 0.66 89 1.32 89 2 C87.77821045 2.24572754 86.5564209 2.49145508 85.29760742 2.74462891 C82.35349306 3.86495095 81.22499462 4.62677278 79.58169556 7.35272217 C78.31327322 10.56271537 77.25087838 13.78615698 76.23828125 17.0859375 C75.83973434 18.29383942 75.44118744 19.50174133 75.03056335 20.74624634 C73.9757475 23.96035986 72.94858587 27.18071331 71.93444824 30.40771484 C70.91118149 33.64441101 69.85670412 36.87085254 68.80273438 40.09765625 C67.61004257 43.75042438 66.42115932 47.40368154 65.25813293 51.06600952 C62.78259564 58.82748637 60.00209941 66.42681975 57 74 C54.63301086 73.75379944 54.63301086 73.75379944 52 73 C50.75334167 71.24729919 50.75334167 71.24729919 49.87182617 68.93920898 C49.53185104 68.07839218 49.19187592 67.21757538 48.84159851 66.33067322 C48.49555069 65.39526199 48.14950287 64.45985077 47.79296875 63.49609375 C47.42271072 62.54307877 47.0524527 61.59006378 46.67097473 60.60816956 C45.49095956 57.55815138 44.33906923 54.49835711 43.1875 51.4375 C42.39310348 49.36973971 41.59690166 47.30267202 40.79882812 45.23632812 C38.84485498 40.16540706 36.9138757 35.0861804 35 30 C32.58805911 35.92063573 30.28374987 41.84921939 28.23828125 47.90625 C27.8840937 48.94332092 27.8840937 48.94332092 27.52275085 50.00134277 C26.78353168 52.16673012 26.04774736 54.33326117 25.3125 56.5 C24.56610138 58.69514847 23.81893468 60.89002707 23.07011414 63.08435059 C22.60784063 64.43938688 22.14701589 65.7949185 21.68782043 67.15100098 C20.887833 69.49889034 20.11076688 71.77846625 19 74 C16.6739502 73.86755371 16.6739502 73.86755371 14 73 C12.48327637 70.49475098 12.48327637 70.49475098 11.21679688 67.11914062 C10.98025894 66.50612595 10.74372101 65.89311127 10.50001526 65.26152039 C9.98922984 63.93021476 9.48766623 62.59534273 8.99427795 61.25749207 C8.21305843 59.14082905 7.40742116 57.03501195 6.59460449 54.93029785 C4.58164303 49.70245755 2.61216053 44.45846554 0.64093018 39.21478271 C-1.02662828 34.78390952 -2.71019645 30.35979554 -4.41575623 25.94340515 C-5.21034467 23.86572813 -5.9804496 21.7800043 -6.75012207 19.69299316 C-7.23783312 18.42182833 -7.72666451 17.15109257 -8.21679688 15.88085938 C-8.63473511 14.76690796 -9.05267334 13.65295654 -9.48327637 12.50524902 C-10.77416349 9.78378014 -10.77416349 9.78378014 -13.52941895 9.07385254 C-16.30298328 8.99094299 -17.67565163 9.5365214 -20 11 C-19.73212125 7.07111171 -19.47562903 5.45123779 -16.5625 2.6875 C-11.223372 -0.82851112 -6.28305539 -0.55172308 0 0 Z " fill="#3150DB" transform="translate(115,1)"/>
<path d="M0 0 C5.04961009 -0.07498279 10.09888564 -0.12898919 15.14892578 -0.16479492 C16.86154842 -0.1797446 18.57413371 -0.20011186 20.28662109 -0.22631836 C33.49685849 -0.42319799 45.99319737 -0.59528879 56.5703125 8.32421875 C59.34112187 11.57197072 59.62405588 15.85813291 60 20 C59.11126578 25.13490883 56.65822348 28.34177652 53 32 C49.34376829 34.18882033 46.31453323 35 42 35 C46.42191357 41.91947586 50.85872186 48.8291371 55.375 55.6875 C56.00148438 56.64011719 56.62796875 57.59273437 57.2734375 58.57421875 C59.37222657 61.54240422 59.37222657 61.54240422 62 64 C65.14921909 63.76716851 65.14921909 63.76716851 68 63 C67.63166144 69.38453501 67.63166144 69.38453501 64.5625 72.375 C59.42178717 75.63496424 55.00936129 75.56337762 49 75 C37.46368954 70.34110539 32.41791931 52.54990023 27.82861328 42.00195312 C27.14969315 40.36166288 26.56138085 38.68414256 26 37 C25.34 37 24.68 37 24 37 C24.1390777 41.56273224 24.28743634 46.12511691 24.4375 50.6875 C24.47681641 51.98107422 24.51613281 53.27464844 24.55664062 54.60742188 C24.59853516 55.85458984 24.64042969 57.10175781 24.68359375 58.38671875 C24.72025146 59.53358154 24.75690918 60.68044434 24.79467773 61.86206055 C24.97840298 64.66993278 25.3699382 67.26225814 26 70 C27.65 70.33 29.3 70.66 31 71 C31 71.99 31 72.98 31 74 C20.77 74 10.54 74 0 74 C0 73.01 0 72.02 0 71 C2.475 70.505 2.475 70.505 5 70 C5.82554974 66.39480753 6.12635935 63.06648911 6.12939453 59.37109375 C6.13412277 57.71412476 6.13412277 57.71412476 6.13894653 56.02368164 C6.13591019 54.24852173 6.13591019 54.24852173 6.1328125 52.4375 C6.13376923 51.21345459 6.13472595 49.98940918 6.13571167 48.72827148 C6.13639155 46.14274036 6.13455063 43.55720752 6.13037109 40.97167969 C6.1250202 37.01493494 6.13032263 33.05830371 6.13671875 29.1015625 C6.13605793 26.58854142 6.1347767 24.0755204 6.1328125 21.5625 C6.13483673 20.37906006 6.13686096 19.19562012 6.13894653 17.97631836 C6.13579437 16.87167236 6.13264221 15.76702637 6.12939453 14.62890625 C6.12859894 13.66025635 6.12780334 12.69160645 6.12698364 11.69360352 C5.99968076 8.99322819 5.75933362 6.59709369 5 4 C2.52363988 2.62533375 2.52363988 2.62533375 0 2 C0 1.34 0 0.68 0 0 Z M24 3 C24 12.9 24 22.8 24 33 C32.24456594 33.73808589 32.24456594 33.73808589 35.875 31.375 C40.14751087 26.59984079 41.52903117 22.4847194 41.28515625 16.17578125 C40.70271229 11.73165401 38.85422992 8.92960315 35.875 5.6875 C32.25062704 3.29738332 32.25062704 3.29738332 24 3 Z " fill="#3150DB" transform="translate(409,1)"/>
<path d="M0 0 C0.87978516 0.58587891 0.87978516 0.58587891 1.77734375 1.18359375 C2.70353516 1.69212891 2.70353516 1.69212891 3.6484375 2.2109375 C10.97010284 6.63542774 15.16226895 15.07807427 17.30859375 23.15234375 C19.44969464 36.99812951 18.16957435 49.94602966 10.57421875 61.921875 C7.56441164 65.71030612 4.02475453 67.9570099 -0.22265625 70.18359375 C-1.37765625 70.80234375 -2.53265625 71.42109375 -3.72265625 72.05859375 C-13.77591004 75.39627401 -25.29310716 74.02527076 -34.70703125 69.66796875 C-43.07532595 64.73015511 -47.66901621 58.05152776 -50.4921875 48.890625 C-53.02606641 36.03152829 -52.58185581 22.02966492 -45.6796875 10.63671875 C-36.07652324 -2.81210626 -14.86573367 -8.50732086 0 0 Z M-26.34765625 5.30859375 C-34.58212351 17.93477689 -34.46630689 38.33321847 -31.46875 52.57421875 C-29.52799987 59.11949369 -27.21618902 64.67549873 -21.91015625 69.12109375 C-18.19312433 70.590618 -16.04849668 70.27669102 -12.22265625 69.18359375 C-4.76653281 63.46145251 -2.51527006 55.10364564 -1.22265625 46.18359375 C-0.94000898 42.38675453 -0.88824236 38.61494126 -0.91015625 34.80859375 C-0.9150708 33.79853271 -0.91998535 32.78847168 -0.92504883 31.74780273 C-1.08871879 21.33419662 -2.25668331 11.40673932 -9.22265625 3.18359375 C-11.84706705 1.08406511 -13.42553161 0.30316245 -16.72265625 -0.19140625 C-20.92254183 0.43857659 -23.38641057 2.34734807 -26.34765625 5.30859375 Z " fill="#3150DB" transform="translate(384.22265625,2.81640625)"/>
<path d="M0 0 C9.9 0 19.8 0 30 0 C30 0.66 30 1.32 30 2 C28.35 2.33 26.7 2.66 25 3 C25 12.9 25 22.8 25 33 C30.85229297 26.12355576 36.66337206 19.24403894 42.2734375 12.16796875 C44.47203035 9.4072922 46.72681499 6.6994072 49 4 C46.36 3.34 43.72 2.68 41 2 C41 1.34 41 0.68 41 0 C47.6 0 54.2 0 61 0 C61 0.66 61 1.32 61 2 C59.9584375 2.36867187 58.916875 2.73734375 57.84375 3.1171875 C53.61484392 4.93595747 51.29715911 7.5551109 48.5 11.125 C48.03295654 11.69887451 47.56591309 12.27274902 47.0847168 12.86401367 C45.70763333 14.56430715 44.35108329 16.27900748 43 18 C41.88044922 19.41345703 41.88044922 19.41345703 40.73828125 20.85546875 C39.14227815 22.89174856 37.56165769 24.93733268 36 27 C42.46101074 39.54796296 50.98703973 53.98703973 61 64 C64.59679066 63.67673447 64.59679066 63.67673447 68 63 C67.58565093 67.83407252 65.62206046 69.89537674 62 73 C56.32187877 74.89270708 50.90263725 74.70945796 45.3125 72.625 C40.65144711 69.49233887 37.97750714 64.64279276 35 60 C33.69493421 58.03743152 32.38199505 56.08029076 31.06787109 54.1237793 C29.03609024 51.08862953 27.01961643 48.04325764 25 45 C25 52.92 25 60.84 25 69 C26.65 69.66 28.3 70.32 30 71 C30 71.99 30 72.98 30 74 C20.1 74 10.2 74 0 74 C0 73.01 0 72.02 0 71 C0.639375 70.87625 1.27875 70.7525 1.9375 70.625 C2.9584375 70.315625 2.9584375 70.315625 4 70 C5.36215069 67.27569862 5.15739948 65.08709282 5.19287109 62.03735352 C5.20893402 60.78588028 5.22499695 59.53440704 5.24154663 58.24501038 C5.25303112 56.87298255 5.26364016 55.50094716 5.2734375 54.12890625 C5.28142302 53.09469701 5.28142302 53.09469701 5.28956985 52.03959465 C5.31628724 48.39221178 5.33566902 44.74486302 5.35009766 41.09741211 C5.36676865 37.32631144 5.41156884 33.55608084 5.4624691 29.78530979 C5.49608115 26.88826973 5.50766807 23.9914381 5.51332474 21.09422112 C5.52005109 19.70388046 5.53530936 18.31355417 5.55921555 16.92340279 C5.59073902 14.97985431 5.58791167 13.03584011 5.58349609 11.09204102 C5.59158295 9.98554703 5.5996698 8.87905304 5.60800171 7.73902893 C5.27307336 4.76421936 5.27307336 4.76421936 2.46353149 3.24424744 C1.6505661 2.83364578 0.83760071 2.42304413 0 2 C0 1.34 0 0.68 0 0 Z " fill="#3150DB" transform="translate(265,1)"/>
<path d="M0 0 C3.00285327 2.07048984 4.40523439 3.90384946 5.82421875 7.2578125 C6.45013066 11.5238963 6.44856114 15.66660712 3.82421875 19.2578125 C-0.18211876 21.92870417 -3.46569553 21.96475123 -8.17578125 21.2578125 C-11.207938 19.05949886 -11.99232523 17.80818056 -13.17578125 14.2578125 C-13.57319368 8.99209781 -12.84252345 5.8134971 -10.17578125 1.2578125 C-15.29496271 1.081289 -19.4256149 1.0565159 -24.17578125 3.2578125 C-25.51972034 7.28962978 -25.63439983 11.0385216 -25.17578125 15.2578125 C-23.81693009 17.65864688 -23.81693009 17.65864688 -22.17578125 19.2578125 C-22.17578125 19.9178125 -22.17578125 20.5778125 -22.17578125 21.2578125 C-21.59546143 21.54301758 -21.0151416 21.82822266 -20.41723633 22.12207031 C-16.81902559 23.94527872 -13.35051869 25.98238159 -9.86328125 28.0078125 C-9.12916016 28.42546875 -8.39503906 28.843125 -7.63867188 29.2734375 C0.0264945 33.73514925 7.09491658 38.42391731 9.82421875 47.2578125 C10.91734796 53.69262463 9.5879147 58.94914259 5.82421875 64.2578125 C0.24049516 70.29638998 -6.54096882 72.98237222 -14.59375 73.4609375 C-25.64322303 73.59834027 -34.52895218 72.64364566 -43.17578125 65.2578125 C-45.75568262 61.0849519 -45.86563244 57.03567075 -45.17578125 52.2578125 C-43.38350065 49.07153588 -42.20660834 47.70357557 -38.86328125 46.2578125 C-34.95890986 46.2578125 -32.54945495 47.3210739 -29.17578125 49.2578125 C-27.11328125 51.8203125 -27.11328125 51.8203125 -26.17578125 55.2578125 C-26.465147 57.91170981 -26.9771137 60.40125145 -27.6328125 62.98828125 C-28.29211949 65.3551599 -28.29211949 65.3551599 -28.17578125 68.2578125 C-22.9955275 69.98456375 -17.95467536 69.86196522 -12.86328125 68.1328125 C-9.51348895 65.7957481 -8.44321972 64.13468311 -7.17578125 60.2578125 C-6.8956262 56.47571932 -7.30844633 54.32127844 -9.73046875 51.3515625 C-14.83179149 46.50049333 -20.6759507 42.94116726 -26.77001953 39.49072266 C-34.24672722 35.22984555 -40.14698248 30.5966755 -43.17578125 22.2578125 C-44.18106038 16.11249746 -43.71559629 10.43063365 -40.58203125 4.98046875 C-31.92945189 -5.61894097 -11.37944275 -5.67979167 0 0 Z " fill="#3150DB" transform="translate(45.17578125,2.7421875)"/>
<path d="M0 0 C8.2006417 3.78491156 13.90439513 12.99685298 19.25 20.0625 C19.80067139 20.78622803 20.35134277 21.50995605 20.91870117 22.25561523 C26.3675276 29.43918922 31.69523764 36.70978381 37 44 C37.02470935 38.78556667 37.04286444 33.57116739 37.05493164 28.35668945 C37.059962 26.58259487 37.06678699 24.80850444 37.07543945 23.03442383 C37.08756174 20.48517839 37.09324126 17.93598774 37.09765625 15.38671875 C37.10281754 14.59287277 37.10797882 13.79902679 37.11329651 12.98112488 C37.11362877 9.72343714 37.03772826 7.11318479 36 4 C32.48809191 2.77030122 32.48809191 2.77030122 29 2 C29 1.34 29 0.68 29 0 C35.6 0 42.2 0 49 0 C48.67 0.99 48.34 1.98 48 3 C46.35 3.33 44.7 3.66 43 4 C42.67 27.43 42.34 50.86 42 75 C37 75 37 75 35.40112305 73.6809082 C34.94261963 73.06046631 34.48411621 72.44002441 34.01171875 71.80078125 C33.47828857 71.09646973 32.9448584 70.3921582 32.39526367 69.66650391 C31.83170166 68.88968262 31.26813965 68.11286133 30.6875 67.3125 C30.08719971 66.51247559 29.48689941 65.71245117 28.8684082 64.88818359 C27.57679454 63.1661427 26.29144787 61.43938721 25.01171875 59.70849609 C22.29697908 56.0534813 19.52681232 52.44215959 16.75756836 48.82836914 C-0.28794439 26.56808341 -0.28794439 26.56808341 -4 21 C-4 37.5 -4 54 -4 71 C-1.69 71 0.62 71 3 71 C3 71.99 3 72.98 3 74 C-3.6 74 -10.2 74 -17 74 C-17 73.01 -17 72.02 -17 71 C-13.535 70.01 -13.535 70.01 -10 69 C-9.67 50.52 -9.34 32.04 -9 13 C-10.32 12.34 -11.64 11.68 -13 11 C-14.33333333 10.33333333 -15.66666667 9.66666667 -17 9 C-13.40465185 -0.24518097 -9.39377335 -1.05426521 0 0 Z " fill="#3150DB" transform="translate(498,1)"/>
<path d="M0 0 C2.66259766 1.03100586 2.66259766 1.03100586 4.52441406 4.22021484 C5.12433586 5.64759852 5.70277564 7.0841243 6.26416016 8.52709961 C6.58287079 9.29976669 6.90158142 10.07243378 7.22994995 10.86851501 C8.26737206 13.39483902 9.27732544 15.93121779 10.28759766 18.46850586 C10.99330223 20.19994477 11.7009935 21.93057524 12.41064453 23.66040039 C13.83288535 27.1322767 15.24592316 30.60767086 16.65185547 34.08618164 C19.40991477 40.89317724 22.28300602 47.64966834 25.16259766 54.40600586 C26.04850244 56.49694495 26.93397511 58.58806722 27.81884766 60.67944336 C28.43337725 62.12998696 29.04793696 63.58051781 29.66259766 65.03100586 C32.42535943 64.5083212 34.98868525 63.92230999 37.66259766 63.03100586 C37.24824858 67.86507838 35.28465812 69.9263826 31.66259766 73.03100586 C28.80563808 73.98332572 26.82782725 74.22611683 23.85009766 74.28100586 C23.01865234 74.30678711 22.18720703 74.33256836 21.33056641 74.35913086 C17.75198358 73.91901233 15.6708769 73.05511957 12.66259766 71.03100586 C10.8502164 68.51816472 9.57328091 65.84249998 8.28759766 63.03100586 C7.93310547 62.30655273 7.57861328 61.58209961 7.21337891 60.83569336 C5.74302097 57.75872809 4.66259766 55.48044249 4.66259766 52.03100586 C-3.58740234 52.03100586 -11.83740234 52.03100586 -20.33740234 52.03100586 C-20.66740234 53.68100586 -20.99740234 55.33100586 -21.33740234 57.03100586 C-22.16103127 59.4856901 -23.00697017 61.91483039 -23.89990234 64.34350586 C-24.13386719 64.98868164 -24.36783203 65.63385742 -24.60888672 66.29858398 C-25.18187242 67.87721805 -25.75919698 69.45427612 -26.33740234 71.03100586 C-24.35740234 71.03100586 -22.37740234 71.03100586 -20.33740234 71.03100586 C-20.33740234 72.02100586 -20.33740234 73.01100586 -20.33740234 74.03100586 C-25.94740234 74.03100586 -31.55740234 74.03100586 -37.33740234 74.03100586 C-37.33740234 73.04100586 -37.33740234 72.05100586 -37.33740234 71.03100586 C-35.95790405 70.75873169 -35.95790405 70.75873169 -34.55053711 70.48095703 C-30.93641888 68.85005906 -30.1566459 67.56599423 -28.70271301 63.95509338 C-28.44680893 63.25440231 -28.19090485 62.55371124 -27.92724609 61.83178711 C-27.63770554 61.09649277 -27.34816498 60.36119843 -27.04985046 59.60362244 C-26.10446224 57.1909758 -25.19020321 54.76770704 -24.27490234 52.34350586 C-23.62627237 50.67616091 -22.97504206 49.00982534 -22.32128906 47.34448242 C-21.31839199 44.78850702 -20.31727303 42.23197742 -19.32440186 39.67208862 C-16.28344245 31.83364322 -13.08471883 24.06663561 -9.82034302 16.31893921 C-8.97171721 14.30313218 -8.12863953 12.28507425 -7.28637695 10.26660156 C-6.77985596 9.05963623 -6.27333496 7.8526709 -5.75146484 6.60913086 C-5.30754395 5.55113281 -4.86362305 4.49313477 -4.40625 3.40307617 C-2.89010903 0.03833757 -2.89010903 0.03833757 0 0 Z M-8.33740234 23.03100586 C-10.0068361 27.17573036 -11.67248624 31.3219648 -13.33740234 35.46850586 C-13.81435547 36.65250977 -14.29130859 37.83651367 -14.78271484 39.05639648 C-15.23388672 40.18110352 -15.68505859 41.30581055 -16.14990234 42.46459961 C-16.56884766 43.50672607 -16.98779297 44.54885254 -17.41943359 45.62255859 C-18.39676116 47.75716763 -18.39676116 47.75716763 -18.33740234 49.03100586 C-11.40740234 49.03100586 -4.47740234 49.03100586 2.66259766 49.03100586 C-2.2030025 35.97890289 -2.2030025 35.97890289 -7.33740234 23.03100586 C-7.66740234 23.03100586 -7.99740234 23.03100586 -8.33740234 23.03100586 Z " fill="#3150DB" transform="translate(224.33740234375,0.968994140625)"/>
<path d="M0 0 C9.9 0 19.8 0 30 0 C30 0.99 30 1.98 30 3 C28.35 3.66 26.7 4.32 25 5 C24.97685633 13.17963488 24.95907456 21.35925613 24.94818783 29.53891563 C24.94296344 33.33682789 24.93587383 37.1347178 24.92456055 40.93261719 C24.91371592 44.59600673 24.90771981 48.25937473 24.90512276 51.92277908 C24.90327136 53.32225509 24.89965618 54.72172988 24.89426994 56.12119675 C24.88703874 58.07736822 24.88659177 60.03356126 24.88647461 61.98974609 C24.88314369 63.66186661 24.88314369 63.66186661 24.87974548 65.36776733 C24.82060851 67.97949033 24.82060851 67.97949033 26 70 C28.02463255 70.65213292 28.02463255 70.65213292 30 71 C30 71.99 30 72.98 30 74 C20.1 74 10.2 74 0 74 C0 73.01 0 72.02 0 71 C2.475 70.01 2.475 70.01 5 69 C5.11579655 60.70733878 5.2046645 52.41501466 5.25906086 44.12174511 C5.28516727 40.27089595 5.32058231 36.42059942 5.37719727 32.57006836 C5.43148295 28.85475033 5.46141268 25.13996414 5.47438622 21.42428017 C5.48363259 20.00601132 5.50168912 18.58777194 5.52865028 17.16972923 C5.56488313 15.18529977 5.56704187 13.2003363 5.56762695 11.21557617 C5.58428154 9.52013924 5.58428154 9.52013924 5.60127258 7.79045105 C5.28214412 4.76845702 5.28214412 4.76845702 2.46452332 3.23652649 C1.65123062 2.82847275 0.83793793 2.42041901 0 2 C0 1.34 0 0.68 0 0 Z " fill="#3150DA" transform="translate(62,1)"/>
</svg>
